<?xml version="1.0" encoding="UTF-8"?>
<svg version="1.1" xmlns="http://www.w3.org/2000/svg" width="236" height="257">
<path d="M0 0 C1.39974815 0.01762894 1.39974815 0.01762894 2.82777405 0.03561401 C4.77985088 0.06410701 6.73187804 0.09621919 8.68383789 0.13183594 C10.68043676 0.16393612 12.6772422 0.18496036 14.67407227 0.1953125 C17.57525955 0.21048335 20.47432262 0.25773127 23.375 0.3125 C24.71557716 0.31130661 24.71557716 0.31130661 26.08323669 0.31008911 C28.40358697 0.37415111 30.47462451 0.47647978 32.72265625 1.0546875 C35.78898175 4.59804627 36.487352 8.53812491 37.53515625 13.0546875 C39.13813266 19.59687036 41.44946589 25.30231702 44.453125 31.34765625 C46.20067328 35.07396688 46.84289918 38.23200707 46.89624023 42.33251953 C46.90973007 43.16663361 46.92321991 44.00074768 46.93711853 44.86013794 C46.95277611 46.19780716 46.95277611 46.19780716 46.96875 47.5625 C47.0016653 49.45443211 47.03487731 51.34635908 47.06835938 53.23828125 C47.11591954 56.21855394 47.16040674 59.19880242 47.19946289 62.17919922 C47.23903331 65.05717731 47.2905866 67.93474551 47.34375 70.8125 C47.35637123 72.15624191 47.35637123 72.15624191 47.36924744 73.52713013 C47.38588943 74.35493988 47.40253143 75.18274963 47.41967773 76.03564453 C47.43513893 77.1300737 47.43513893 77.1300737 47.45091248 78.24661255 C47.57724203 80.30537955 47.57724203 80.30537955 49.72265625 82.0546875 C49.94970703 84.66845703 49.94970703 84.66845703 49.91796875 87.9375 C49.90830078 89.68740234 49.90830078 89.68740234 49.8984375 91.47265625 C49.87330078 93.30763672 49.87330078 93.30763672 49.84765625 95.1796875 C49.83863281 96.41074219 49.82960937 97.64179687 49.8203125 98.91015625 C49.79668173 101.95852565 49.76373679 105.00651132 49.72265625 108.0546875 C50.34239822 108.04580505 50.9621402 108.03692261 51.60066223 108.027771 C58.04040317 107.93940127 64.47997242 107.87899645 70.92016602 107.83496094 C73.32485955 107.81482303 75.729504 107.7875108 78.1340332 107.75292969 C81.58687439 107.70450873 85.03906923 107.68174039 88.4921875 107.6640625 C89.57039261 107.64341736 90.64859772 107.62277222 91.75947571 107.60150146 C93.26069221 107.60104828 93.26069221 107.60104828 94.79223633 107.60058594 C95.67381912 107.59170349 96.55540192 107.58282104 97.46369934 107.57366943 C99.72265625 108.0546875 99.72265625 108.0546875 101.4683075 109.89556885 C104.12058741 114.46095548 103.8762067 118.81011676 103.84765625 123.9296875 C103.84282227 124.86546631 103.83798828 125.80124512 103.83300781 126.76538086 C103.80777614 129.86206412 103.76766428 132.95823109 103.72265625 136.0546875 C103.71008789 137.04130371 103.69751953 138.02791992 103.68457031 139.04443359 C103.40543135 156.67291343 102.15716092 174.22820776 100.84765625 191.8046875 C100.72602112 193.48717087 100.72602112 193.48717087 100.60192871 195.2036438 C99.14599492 215.1574171 96.14746132 232.52538923 90.72265625 252.0546875 C24.06265625 252.0546875 -42.59734375 252.0546875 -111.27734375 252.0546875 C-121.6707993 213.94535047 -133.27908594 150.06165627 -123.27734375 110.0546875 C-114.36234172 104.11135281 -97.26214175 107.11250648 -86.83984375 107.4921875 C-85.22202747 107.5456006 -83.60418876 107.59833843 -81.98632812 107.65039062 C-78.08303195 107.77740821 -74.18014971 107.91343699 -70.27734375 108.0546875 C-70.2930542 106.88897217 -70.2930542 106.88897217 -70.30908203 105.69970703 C-70.35054657 102.1930665 -70.37663953 98.68647744 -70.40234375 95.1796875 C-70.41910156 93.95636719 -70.43585938 92.73304687 -70.453125 91.47265625 C-70.46279297 89.72275391 -70.46279297 89.72275391 -70.47265625 87.9375 C-70.4883667 86.31932373 -70.4883667 86.31932373 -70.50439453 84.66845703 C-70.27734375 82.0546875 -70.27734375 82.0546875 -68.27734375 80.0546875 C-68.11402272 77.5170752 -68.07004449 75.09014519 -68.1171875 72.5546875 C-68.12238907 71.80437256 -68.12759064 71.05405762 -68.13294983 70.28100586 C-68.1507886 67.87203824 -68.18188926 65.46349215 -68.21484375 63.0546875 C-68.57811234 31.97784911 -68.57811234 31.97784911 -59.02734375 20.3046875 C-58.11984375 19.5621875 -57.21234375 18.8196875 -56.27734375 18.0546875 C-55.5915625 17.44238281 -54.90578125 16.83007812 -54.19921875 16.19921875 C-38.74076083 2.90993154 -19.78866855 -0.2553552 0 0 Z " fill="#798792" transform="translate(128.27734375,2.9453125)"/>
<path d="M0 0 C1.39974815 0.01762894 1.39974815 0.01762894 2.82777405 0.03561401 C4.77985088 0.06410701 6.73187804 0.09621919 8.68383789 0.13183594 C10.68043676 0.16393612 12.6772422 0.18496036 14.67407227 0.1953125 C17.57525955 0.21048335 20.47432262 0.25773127 23.375 0.3125 C24.71557716 0.31130661 24.71557716 0.31130661 26.08323669 0.31008911 C28.40358697 0.37415111 30.47462451 0.47647978 32.72265625 1.0546875 C35.78898175 4.59804627 36.487352 8.53812491 37.53515625 13.0546875 C39.13813266 19.59687036 41.44946589 25.30231702 44.453125 31.34765625 C46.20067328 35.07396688 46.84289918 38.23200707 46.89624023 42.33251953 C46.90973007 43.16663361 46.92321991 44.00074768 46.93711853 44.86013794 C46.95277611 46.19780716 46.95277611 46.19780716 46.96875 47.5625 C47.0016653 49.45443211 47.03487731 51.34635908 47.06835938 53.23828125 C47.11591954 56.21855394 47.16040674 59.19880242 47.19946289 62.17919922 C47.23903331 65.05717731 47.2905866 67.93474551 47.34375 70.8125 C47.35216415 71.70832794 47.36057831 72.60415588 47.36924744 73.52713013 C47.38588943 74.35493988 47.40253143 75.18274963 47.41967773 76.03564453 C47.43513893 77.1300737 47.43513893 77.1300737 47.45091248 78.24661255 C47.57724203 80.30537955 47.57724203 80.30537955 49.72265625 82.0546875 C49.96557617 84.65258789 49.96557617 84.65258789 49.953125 87.90234375 C49.95119141 89.06443359 49.94925781 90.22652344 49.94726562 91.42382812 C49.93501953 92.64263672 49.92277344 93.86144531 49.91015625 95.1171875 C49.90918945 96.95120117 49.90918945 96.95120117 49.90820312 98.82226562 C49.86276681 107.91457694 49.86276681 107.91457694 48.72265625 109.0546875 C47.19412135 109.15267138 45.66106661 109.18100581 44.12939453 109.18167114 C42.64019501 109.18590088 42.64019501 109.18590088 41.12091064 109.19021606 C40.02268982 109.18819183 38.92446899 109.1861676 37.79296875 109.18408203 C36.64350769 109.18583435 35.49404663 109.18758667 34.30975342 109.18939209 C30.48903925 109.1938134 26.66837093 109.19087163 22.84765625 109.1875 C20.20589184 109.18817296 17.56412748 109.18914292 14.92236328 109.19039917 C9.37727354 109.19222071 3.8321971 109.18981497 -1.71289062 109.18505859 C-8.13229119 109.179616 -14.55166 109.18137867 -20.9710598 109.186885 C-27.13535358 109.19196176 -33.29963323 109.19143461 -39.46392822 109.18850327 C-42.09230555 109.18783372 -44.72068367 109.18866338 -47.34906006 109.19098282 C-51.01528098 109.19350769 -54.68143997 109.18967107 -58.34765625 109.18408203 C-59.44587708 109.18610626 -60.5440979 109.18813049 -61.67559814 109.19021606 C-62.66839783 109.18739624 -63.66119751 109.18457642 -64.68408203 109.18167114 C-65.552034 109.18129412 -66.41998596 109.18091709 -67.3142395 109.18052864 C-69.27734375 109.0546875 -69.27734375 109.0546875 -70.27734375 108.0546875 C-70.53076611 103.74821114 -70.46257013 99.43023696 -70.46484375 95.1171875 C-70.48321289 93.28897461 -70.48321289 93.28897461 -70.50195312 91.42382812 C-70.50388672 90.26173828 -70.50582031 89.09964844 -70.5078125 87.90234375 C-70.51192139 86.82992432 -70.51603027 85.75750488 -70.52026367 84.65258789 C-70.27734375 82.0546875 -70.27734375 82.0546875 -68.27734375 80.0546875 C-68.11402272 77.5170752 -68.07004449 75.09014519 -68.1171875 72.5546875 C-68.12238907 71.80437256 -68.12759064 71.05405762 -68.13294983 70.28100586 C-68.1507886 67.87203824 -68.18188926 65.46349215 -68.21484375 63.0546875 C-68.57811234 31.97784911 -68.57811234 31.97784911 -59.02734375 20.3046875 C-58.11984375 19.5621875 -57.21234375 18.8196875 -56.27734375 18.0546875 C-55.5915625 17.44238281 -54.90578125 16.83007812 -54.19921875 16.19921875 C-38.74076083 2.90993154 -19.78866855 -0.2553552 0 0 Z " fill="#EEB324" transform="translate(128.27734375,2.9453125)"/>
<path d="M0 0 C1.39974815 0.01762894 1.39974815 0.01762894 2.82777405 0.03561401 C4.77985088 0.06410701 6.73187804 0.09621919 8.68383789 0.13183594 C10.68043676 0.16393612 12.6772422 0.18496036 14.67407227 0.1953125 C17.57525955 0.21048335 20.47432262 0.25773127 23.375 0.3125 C24.71557716 0.31130661 24.71557716 0.31130661 26.08323669 0.31008911 C28.40358697 0.37415111 30.47462451 0.47647978 32.72265625 1.0546875 C35.78898175 4.59804627 36.487352 8.53812491 37.53515625 13.0546875 C39.13813266 19.59687036 41.44946589 25.30231702 44.453125 31.34765625 C46.19487286 35.06159861 46.84335499 38.23003899 46.91552734 42.31665039 C46.93159027 43.14753677 46.9476532 43.97842316 46.96420288 44.83448792 C47.00881643 48.601643 47.04965469 52.36862926 47.07275391 56.13598633 C47.08937141 58.12536266 47.11673683 60.1146779 47.15478516 62.10375977 C47.20937427 64.97443535 47.23139256 67.84372014 47.24609375 70.71484375 C47.28009781 72.05084373 47.28009781 72.05084373 47.31478882 73.41383362 C47.30679959 75.73413929 47.25511388 77.79639231 46.72265625 80.0546875 C44.37744141 82.20092773 44.37744141 82.20092773 41.72265625 83.0546875 C40.23765625 82.5596875 40.23765625 82.5596875 38.72265625 82.0546875 C37.6953125 79.33007812 37.6953125 79.33007812 36.78515625 75.7109375 C36.61894775 75.06781616 36.45273926 74.42469482 36.28149414 73.76208496 C35.74978711 71.69582 35.23559355 69.62568388 34.72265625 67.5546875 C34.04017204 64.85548167 33.35084865 62.15805318 32.66015625 59.4609375 C32.33402344 58.18476562 32.00789063 56.90859375 31.671875 55.59375 C30.53061418 51.33867878 29.19230512 47.20644556 27.72265625 43.0546875 C26.43230469 43.20808594 25.14195312 43.36148438 23.8125 43.51953125 C9.71142527 45.07594732 -4.53318843 45.16582778 -18.70706177 45.23092651 C-20.19509836 45.23834829 -21.68312298 45.2489535 -23.17111206 45.26296997 C-31.73098419 45.3362241 -39.90808791 45.02241583 -48.27734375 43.0546875 C-50.39485025 49.03259168 -52.07059583 54.96777017 -53.33984375 61.1796875 C-53.5090332 61.99284424 -53.67822266 62.80600098 -53.85253906 63.64379883 C-55.35849808 71.07421225 -56.42171192 78.52287572 -57.27734375 86.0546875 C-59.25734375 86.0546875 -61.23734375 86.0546875 -63.27734375 86.0546875 C-66.56114001 79.78562191 -68.53397132 74.60612403 -68.5078125 67.4765625 C-68.50587891 66.23261719 -68.50394531 64.98867187 -68.50195312 63.70703125 C-68.48970703 62.41925781 -68.47746094 61.13148437 -68.46484375 59.8046875 C-68.46419922 58.53238281 -68.46355469 57.26007812 -68.46289062 55.94921875 C-68.39964083 42.32942906 -68.03083483 31.30895438 -59.02734375 20.3046875 C-58.11984375 19.5621875 -57.21234375 18.8196875 -56.27734375 18.0546875 C-55.5915625 17.44238281 -54.90578125 16.83007812 -54.19921875 16.19921875 C-38.74076083 2.90993154 -19.78866855 -0.2553552 0 0 Z " fill="#BF6315" transform="translate(128.27734375,2.9453125)"/>
<path d="M0 0 C1.390979 -0.0010952 1.390979 -0.0010952 2.81005859 -0.00221252 C5.86770619 0.00126414 8.92382051 0.04012963 11.98120117 0.0793457 C14.10397001 0.08867353 16.22674962 0.09578978 18.34953308 0.1007843 C23.93112004 0.11985631 29.51205434 0.16895959 35.09338379 0.2243042 C40.79092581 0.27549187 46.48857351 0.29829736 52.1862793 0.32348633 C63.3617421 0.37707776 74.53654958 0.46501602 85.71166992 0.56762695 C85.71166992 6.83762695 85.71166992 13.10762695 85.71166992 19.56762695 C52.71166992 19.56762695 19.71166992 19.56762695 -14.28833008 19.56762695 C-14.28833008 5.56762695 -14.28833008 5.56762695 -12.36885071 2.22810364 C-8.12505279 -0.05940823 -4.75433272 -0.09819762 0 0 Z " fill="#F7CA58" transform="translate(82.288330078125,91.432373046875)"/>
<path d="M0 0 C3.42062263 1.43590972 5.23874919 3.19810023 7.5625 6.0625 C10.18282506 9.33584139 10.18282506 9.33584139 14 11 C17.1961204 16.88078205 17.46722321 23.42038145 17.46875 29.9609375 C17.48017029 31.32951401 17.48017029 31.32951401 17.49182129 32.72573853 C17.50254893 34.63663004 17.50550557 36.54757983 17.50097656 38.45849609 C17.49999542 41.38866812 17.54188035 44.31629296 17.5859375 47.24609375 C17.59113877 49.10936956 17.59383279 50.97265443 17.59375 52.8359375 C17.6183429 54.14840958 17.6183429 54.14840958 17.64343262 55.48739624 C17.617286 57.76783992 17.54817317 59.78638746 17 62 C14.65039062 64.13525391 14.65039062 64.13525391 12 65 C11.01 64.67 10.02 64.34 9 64 C7.97265625 61.27539062 7.97265625 61.27539062 7.0625 57.65625 C6.8962915 57.01312866 6.73008301 56.37000732 6.55883789 55.70739746 C6.02713086 53.6411325 5.5129373 51.57099638 5 49.5 C4.48382322 47.45853537 3.96396773 45.41807274 3.44116211 43.3782959 C2.96326529 41.50713178 2.49502681 39.63350869 2.02734375 37.75976562 C0.85173798 33.45740611 -0.58959771 29.23120688 -2 25 C-13.22 25 -24.44 25 -36 25 C-33.8726387 20.7452774 -27.27886615 19.44045715 -23 18 C-20.56564163 17.64444872 -18.12795815 17.31093632 -15.6875 17 C-11.15587212 16.16377695 -9.51957944 15.65824808 -6.62890625 11.99609375 C-4.80563329 8.78620086 -3.43062394 5.39999549 -2 2 C-1.34 1.34 -0.68 0.68 0 0 Z " fill="#B65215" transform="translate(158,21)"/>
<path d="M0 0 C12.54 0 25.08 0 38 0 C38 8.25 38 16.5 38 25 C25.46 25 12.92 25 0 25 C0 16.75 0 8.5 0 0 Z " fill="#9FAFBE" transform="translate(99,180)"/>
<path d="M0 0 C1.16228962 2.24155855 2.06770803 4.24262043 2.75 6.6875 C3.1625 7.450625 3.575 8.21375 4 9 C7.05272465 9.89830839 7.05272465 9.89830839 10 10 C9.01 10.33 8.02 10.66 7 11 C7 17.93 7 24.86 7 32 C40 32 73 32 107 32 C107 23.75 107 15.5 107 7 C108.98 6.01 110.96 5.02 113 4 C115.375 4.8125 115.375 4.8125 117 6 C117.02886537 10.31248609 117.04675255 14.62494762 117.0625 18.9375 C117.07087891 20.16919922 117.07925781 21.40089844 117.08789062 22.66992188 C117.09111328 23.83974609 117.09433594 25.00957031 117.09765625 26.21484375 C117.10289307 27.29886475 117.10812988 28.38288574 117.11352539 29.49975586 C117 32 117 32 116 33 C114.4714651 33.09798388 112.93841036 33.12631831 111.40673828 33.12698364 C109.91753876 33.13121338 109.91753876 33.13121338 108.39825439 33.13552856 C107.30003357 33.13350433 106.20181274 33.1314801 105.0703125 33.12939453 C103.92085144 33.13114685 102.77139038 33.13289917 101.58709717 33.13470459 C97.766383 33.1391259 93.94571468 33.13618413 90.125 33.1328125 C87.48323559 33.13348546 84.84147123 33.13445542 82.19970703 33.13571167 C76.65461729 33.13753321 71.10954085 33.13512747 65.56445312 33.13037109 C59.14505256 33.1249285 52.72568375 33.12669117 46.30628395 33.1321975 C40.14199017 33.13727426 33.97771052 33.13674711 27.81341553 33.13381577 C25.1850382 33.13314622 22.55666008 33.13397588 19.92828369 33.13629532 C16.26206277 33.13882019 12.59590378 33.13498357 8.9296875 33.12939453 C7.83146667 33.13141876 6.73324585 33.13344299 5.60174561 33.13552856 C4.60894592 33.13270874 3.61614624 33.12988892 2.59326172 33.12698364 C1.72530975 33.12660662 0.85735779 33.12622959 -0.03689575 33.12584114 C-2 33 -2 33 -3 32 C-3.25342236 27.69352364 -3.18522638 23.37554946 -3.1875 19.0625 C-3.20586914 17.23428711 -3.20586914 17.23428711 -3.22460938 15.36914062 C-3.22654297 14.20705078 -3.22847656 13.04496094 -3.23046875 11.84765625 C-3.23457764 10.77523682 -3.23868652 9.70281738 -3.24291992 8.59790039 C-3 6 -3 6 -1 4 C-0.3574765 1.93125966 -0.3574765 1.93125966 0 0 Z " fill="#C9A239" transform="translate(61,79)"/>
<path d="M0 0 C1.32 0.66 2.64 1.32 4 2 C4 10.58 4 19.16 4 28 C0.7 28 -2.6 28 -6 28 C-6 19.75 -6 11.5 -6 3 C-4.02 2.01 -2.04 1.02 0 0 Z " fill="#D6A11F" transform="translate(174,83)"/>
</svg>
